<?xml version="1.0" encoding="UTF-8" standalone="no"?>
<!DOCTYPE svg PUBLIC "-//W3C//DTD SVG 20010904//EN" "http://www.w3.org/TR/2001/REC-SVG-20010904/DTD/svg10.dtd">
<svg version="1.0" xmlns="http://www.w3.org/2000/svg" width="956.000000pt" height="1280.000000pt" viewBox="0 0 956.000000 1280.000000" preserveAspectRatio="xMidYMid meet">
<metadata>
Created by potrace 1.15, written by Peter Selinger 2001-2017
</metadata>
<g transform="translate(0.000000,1280.000000) scale(0.100000,-0.100000)" fill="#000000" stroke="none">
<path d="M4790 12790 c-272 -35 -538 -138 -750 -288 -110 -78 -294 -256 -367 -356 -475 -646 -422 -1523 127 -2100 432 -454 1088 -619 1682 -425 589 193 1019 708 1108 1329 14 96 14 343 0 440 -100 711 -636 1261 -1355 1390 -79 15 -363 21 -445 10z"/>
<path d="M465 11032 c-115 -7 -226 -60 -315 -151 -70 -70 -110 -141 -135 -237 -71 -273 119 -565 400 -617 l70 -13 62 -155 c224 -551 499 -1071 828 -1569 213 -321 461 -641 642 -828 l78 -80 83 -12 c208 -31 419 35 657 205 134 96 251 201 504 450 134 132 241 232 238 222 -95 -262 -156 -592 -193 -1049 -22 -259 -25 -1019 -6 -1243 52 -597 152 -1023 322 -1370 176 -359 394 -589 692 -729 l88 -41 -34 -50 c-98 -146 -220 -368 -307 -557 -135 -295 -236 -553 -439 -1123 -159 -448 -200 -560 -250 -690 -85 -219 -197 -482 -214 -502 -2 -2 -25 8 -52 21 -128 61 -281 95 -459 103 -251 11 -478 -39 -660 -145 -78 -46 -185 -154 -214 -216 -126 -273 113 -542 561 -633 114 -23 392 -23 506 0 284 58 486 186 566 357 28 60 36 170 15 227 -9 28 -5 41 35 120 111 221 258 596 456 1158 340 967 537 1408 779 1745 l68 95 95 3 95 3 76 -109 c104 -147 311 -495 436 -730 241 -453 459 -945 632 -1428 62 -173 159 -488 159 -516 0 -6 -20 -32 -44 -58 -24 -26 -57 -72 -72 -101 -24 -46 -28 -66 -28 -139 -1 -75 3 -92 29 -145 92 -182 340 -318 650 -356 111 -14 334 -6 433 15 300 65 507 208 567 395 63 190 -90 404 -365 514 -229 91 -550 111 -787 49 l-71 -19 -17 61 c-9 33 -42 138 -72 231 -239 733 -648 1606 -1045 2230 -49 77 -90 143 -91 147 -1 5 32 20 73 34 569 194 894 708 1019 1614 45 327 61 596 61 1065 0 445 -16 746 -56 1045 -84 630 -264 1080 -540 1353 -38 37 -63 67 -57 67 19 0 307 -58 402 -81 839 -202 1534 -597 1933 -1097 196 -245 340 -549 393 -828 l17 -91 -36 -54 c-60 -92 -79 -158 -79 -284 -1 -118 16 -183 70 -268 150 -239 473 -311 709 -159 280 181 311 582 63 806 -92 84 -259 144 -373 134 l-38 -3 -24 95 c-37 146 -92 292 -166 440 -334 673 -1008 1195 -1948 1511 -561 188 -1134 283 -1786 296 -248 5 -305 3 -395 -12 -255 -42 -517 -166 -783 -368 -156 -118 -293 -245 -651 -597 -378 -372 -497 -479 -632 -567 -106 -69 -177 -100 -263 -115 l-69 -12 -48 54 c-382 424 -788 1045 -1103 1685 -85 172 -264 576 -284 641 -6 18 2 26 47 52 108 61 147 114 162 220 4 31 13 56 21 59 8 3 37 41 66 85 28 43 59 83 69 89 10 5 100 34 199 64 100 31 209 68 243 84 124 55 168 119 145 209 -9 36 -17 47 -44 58 -103 43 -455 -32 -713 -152 -85 -40 -96 -43 -104 -28 -38 68 -159 160 -249 190 -58 19 -144 30 -203 26z"/>
</g>
</svg>